<svg width="19" height="11" viewBox="0 0 19 11" fill="none" xmlns="http://www.w3.org/2000/svg">
<path fill-rule="evenodd" clip-rule="evenodd" d="M12.7281 0.229521C12.8006 0.156766 12.8868 0.0990426 12.9818 0.0596576C13.0767 0.0202725 13.1784 0 13.2812 0C13.3839 0 13.4857 0.0202725 13.5806 0.0596576C13.6755 0.0990426 13.7617 0.156766 13.8343 0.229521L18.5218 4.91702C18.5946 4.98959 18.6523 5.07581 18.6917 5.17072C18.7311 5.26563 18.7513 5.36739 18.7513 5.47015C18.7513 5.57291 18.7311 5.67466 18.6917 5.76957C18.6523 5.86449 18.5946 5.9507 18.5218 6.02327L13.8343 10.7108C13.6876 10.8575 13.4886 10.9399 13.2812 10.9399C13.0737 10.9399 12.8748 10.8575 12.7281 10.7108C12.5814 10.5641 12.4989 10.3651 12.4989 10.1576C12.4989 9.95019 12.5814 9.75122 12.7281 9.60452L16.864 5.47015L12.7281 1.33577C12.6553 1.2632 12.5976 1.17699 12.5582 1.08207C12.5188 0.98716 12.4985 0.885408 12.4985 0.782646C12.4985 0.679885 12.5188 0.578133 12.5582 0.483219C12.5976 0.388304 12.6553 0.302093 12.7281 0.229521Z" fill="#D41914"/>
<path fill-rule="evenodd" clip-rule="evenodd" d="M0 5.47021C0 5.26301 0.0823102 5.0643 0.228823 4.91779C0.375336 4.77128 0.57405 4.68896 0.78125 4.68896H17.1875C17.3947 4.68896 17.5934 4.77128 17.7399 4.91779C17.8864 5.0643 17.9688 5.26301 17.9688 5.47021C17.9688 5.67742 17.8864 5.87613 17.7399 6.02264C17.5934 6.16916 17.3947 6.25146 17.1875 6.25146H0.78125C0.57405 6.25146 0.375336 6.16916 0.228823 6.02264C0.0823102 5.87613 0 5.67742 0 5.47021Z" fill="#D41914"/>
</svg>
